# xmcd
#
# Track frame offsets: 
#        150
#        15582
#        32844
#        55890
#        73775
#        90635
#        110378
#        128914
#        151067
#        166961
#        180084
#        201216
#        225018
#        253921
#
# Disc length: 3814 seconds
#
# Revision: 0
# Processed by: cddbd v1.5.2PL0 Copyright (c) Steve Scherf et al.
# Submitted via: ExactAudioCopyFreeDBPlugin 1.0
#
DISCID=a80ee40e
DTITLE=Fat Joe - Me, Myself and I
DYEAR=2006
DGENRE=Hip-Hop
TTITLE0=Pendemic
TTITLE1=Damn
TTITLE2=The Profit (Feat. Lil Wayne)
TTITLE3=No Drama (Clap and Revolve)
TTITLE4=Breathe And Stop (Feat. The Game)
TTITLE5=She's My Mama (Feat. H-Mob)
TTITLE6=Make It Rain (Feat. Lil Wayne)
TTITLE7=Jealousy
TTITLE8=Think About It
TTITLE9=Hard Not To Kill
TTITLE10=Bendicion Mami
TTITLE11=Story To Tell
TTITLE12=Make It Rain (Art and Life Remix) (Feat. Lil Wayne)
TTITLE13=Data Track
EXTD=
EXTT0=
EXTT1=
EXTT2=
EXTT3=
EXTT4=
EXTT5=
EXTT6=
EXTT7=
EXTT8=
EXTT9=
EXTT10=
EXTT11=
EXTT12=
EXTT13=
PLAYORDER=
